<mxfile host="app.diagrams.net" modified="2024-04-11T16:52:02.596Z" agent="Mozilla/5.0 (Windows NT 10.0; Win64; x64) AppleWebKit/537.36 (KHTML, like Gecko) Chrome/123.0.0.0 Safari/537.36" etag="LUYH1Ss2Td6jaWZtbkuN" version="24.2.3" type="device">
  <diagram name="Page-1" id="kabk_ZEGPfQJeZm6SthF">
    <mxGraphModel dx="1195" dy="650" grid="1" gridSize="10" guides="1" tooltips="1" connect="1" arrows="1" fold="1" page="1" pageScale="1" pageWidth="827" pageHeight="1169" math="0" shadow="0">
      <root>
        <mxCell id="0" />
        <mxCell id="1" parent="0" />
        <mxCell id="x63BE_PiIi5GWKOGyx0I-18" style="edgeStyle=none;rounded=0;orthogonalLoop=1;jettySize=auto;html=1;exitX=1;exitY=0.5;exitDx=0;exitDy=0;entryX=0;entryY=0.5;entryDx=0;entryDy=0;" parent="1" source="x63BE_PiIi5GWKOGyx0I-16" target="x63BE_PiIi5GWKOGyx0I-17" edge="1">
          <mxGeometry relative="1" as="geometry" />
        </mxCell>
        <mxCell id="x63BE_PiIi5GWKOGyx0I-16" value="" style="ellipse;html=1;shape=endState;fillColor=strokeColor;" parent="1" vertex="1">
          <mxGeometry x="50" y="160" width="30" height="30" as="geometry" />
        </mxCell>
        <mxCell id="x63BE_PiIi5GWKOGyx0I-20" style="edgeStyle=none;rounded=0;orthogonalLoop=1;jettySize=auto;html=1;exitX=1;exitY=0.5;exitDx=0;exitDy=0;entryX=0;entryY=0.5;entryDx=0;entryDy=0;" parent="1" source="x63BE_PiIi5GWKOGyx0I-17" target="x63BE_PiIi5GWKOGyx0I-19" edge="1">
          <mxGeometry relative="1" as="geometry" />
        </mxCell>
        <mxCell id="x63BE_PiIi5GWKOGyx0I-21" value="Все&lt;div&gt;подписи получены&lt;/div&gt;&lt;div&gt;&lt;br&gt;&lt;/div&gt;" style="edgeLabel;html=1;align=center;verticalAlign=middle;resizable=0;points=[];" parent="x63BE_PiIi5GWKOGyx0I-20" vertex="1" connectable="0">
          <mxGeometry x="-0.0182" y="-2" relative="1" as="geometry">
            <mxPoint as="offset" />
          </mxGeometry>
        </mxCell>
        <mxCell id="x63BE_PiIi5GWKOGyx0I-17" value="Оформление" style="html=1;align=center;verticalAlign=top;rounded=1;absoluteArcSize=1;arcSize=10;dashed=0;whiteSpace=wrap;" parent="1" vertex="1">
          <mxGeometry x="120" y="155" width="140" height="40" as="geometry" />
        </mxCell>
        <mxCell id="x63BE_PiIi5GWKOGyx0I-22" style="edgeStyle=none;rounded=0;orthogonalLoop=1;jettySize=auto;html=1;exitX=0.5;exitY=0;exitDx=0;exitDy=0;entryX=0.357;entryY=0;entryDx=0;entryDy=0;entryPerimeter=0;" parent="1" source="x63BE_PiIi5GWKOGyx0I-19" target="x63BE_PiIi5GWKOGyx0I-17" edge="1">
          <mxGeometry relative="1" as="geometry">
            <mxPoint x="170" y="150" as="targetPoint" />
            <Array as="points">
              <mxPoint x="484" y="90" />
              <mxPoint x="170" y="90" />
            </Array>
          </mxGeometry>
        </mxCell>
        <mxCell id="x63BE_PiIi5GWKOGyx0I-23" value="Несоответствие&lt;div&gt;параметров&amp;nbsp;&lt;/div&gt;&lt;div&gt;помещения&lt;/div&gt;" style="edgeLabel;html=1;align=center;verticalAlign=middle;resizable=0;points=[];" parent="x63BE_PiIi5GWKOGyx0I-22" vertex="1" connectable="0">
          <mxGeometry x="0.0251" y="1" relative="1" as="geometry">
            <mxPoint as="offset" />
          </mxGeometry>
        </mxCell>
        <mxCell id="x63BE_PiIi5GWKOGyx0I-19" value="Замеры" style="html=1;align=center;verticalAlign=top;rounded=1;absoluteArcSize=1;arcSize=10;dashed=0;whiteSpace=wrap;" parent="1" vertex="1">
          <mxGeometry x="414" y="155" width="140" height="40" as="geometry" />
        </mxCell>
        <mxCell id="x63BE_PiIi5GWKOGyx0I-24" value="Проектирование" style="html=1;align=center;verticalAlign=top;rounded=1;absoluteArcSize=1;arcSize=10;dashed=0;whiteSpace=wrap;" parent="1" vertex="1">
          <mxGeometry x="414" y="300" width="140" height="40" as="geometry" />
        </mxCell>
        <mxCell id="x63BE_PiIi5GWKOGyx0I-26" value="" style="endArrow=classic;html=1;rounded=0;entryX=0.5;entryY=0;entryDx=0;entryDy=0;exitX=0.5;exitY=1;exitDx=0;exitDy=0;" parent="1" source="x63BE_PiIi5GWKOGyx0I-19" target="x63BE_PiIi5GWKOGyx0I-24" edge="1">
          <mxGeometry width="50" height="50" relative="1" as="geometry">
            <mxPoint x="390" y="230" as="sourcePoint" />
            <mxPoint x="440" y="180" as="targetPoint" />
          </mxGeometry>
        </mxCell>
        <mxCell id="x63BE_PiIi5GWKOGyx0I-27" value="Все замеры сделаны" style="edgeLabel;html=1;align=center;verticalAlign=middle;resizable=0;points=[];" parent="x63BE_PiIi5GWKOGyx0I-26" vertex="1" connectable="0">
          <mxGeometry x="0.0286" y="1" relative="1" as="geometry">
            <mxPoint as="offset" />
          </mxGeometry>
        </mxCell>
        <mxCell id="x63BE_PiIi5GWKOGyx0I-28" value="" style="endArrow=classic;html=1;rounded=0;exitX=1;exitY=0.5;exitDx=0;exitDy=0;entryX=1;entryY=0.5;entryDx=0;entryDy=0;" parent="1" source="x63BE_PiIi5GWKOGyx0I-24" target="x63BE_PiIi5GWKOGyx0I-19" edge="1">
          <mxGeometry width="50" height="50" relative="1" as="geometry">
            <mxPoint x="390" y="230" as="sourcePoint" />
            <mxPoint x="640" y="320" as="targetPoint" />
            <Array as="points">
              <mxPoint x="640" y="320" />
              <mxPoint x="640" y="175" />
            </Array>
          </mxGeometry>
        </mxCell>
        <mxCell id="x63BE_PiIi5GWKOGyx0I-29" value="Недостаточно&amp;nbsp;&lt;div&gt;замеров&lt;/div&gt;" style="edgeLabel;html=1;align=center;verticalAlign=middle;resizable=0;points=[];" parent="x63BE_PiIi5GWKOGyx0I-28" vertex="1" connectable="0">
          <mxGeometry x="-0.0158" y="1" relative="1" as="geometry">
            <mxPoint as="offset" />
          </mxGeometry>
        </mxCell>
        <mxCell id="x63BE_PiIi5GWKOGyx0I-30" value="Согласование проекта&amp;nbsp;&lt;div&gt;с клиентом&lt;/div&gt;" style="html=1;align=center;verticalAlign=top;rounded=1;absoluteArcSize=1;arcSize=10;dashed=0;whiteSpace=wrap;" parent="1" vertex="1">
          <mxGeometry x="414" y="420" width="140" height="40" as="geometry" />
        </mxCell>
        <mxCell id="x63BE_PiIi5GWKOGyx0I-31" value="" style="endArrow=classic;html=1;rounded=0;exitX=0.5;exitY=1;exitDx=0;exitDy=0;entryX=0.5;entryY=0;entryDx=0;entryDy=0;" parent="1" source="x63BE_PiIi5GWKOGyx0I-24" target="x63BE_PiIi5GWKOGyx0I-30" edge="1">
          <mxGeometry width="50" height="50" relative="1" as="geometry">
            <mxPoint x="390" y="230" as="sourcePoint" />
            <mxPoint x="440" y="180" as="targetPoint" />
          </mxGeometry>
        </mxCell>
        <mxCell id="x63BE_PiIi5GWKOGyx0I-32" value="Проект готов" style="edgeLabel;html=1;align=center;verticalAlign=middle;resizable=0;points=[];" parent="x63BE_PiIi5GWKOGyx0I-31" vertex="1" connectable="0">
          <mxGeometry x="-0.1" relative="1" as="geometry">
            <mxPoint as="offset" />
          </mxGeometry>
        </mxCell>
        <mxCell id="x63BE_PiIi5GWKOGyx0I-33" value="" style="endArrow=classic;html=1;rounded=0;exitX=0;exitY=0.5;exitDx=0;exitDy=0;entryX=0;entryY=0.5;entryDx=0;entryDy=0;" parent="1" source="x63BE_PiIi5GWKOGyx0I-30" target="x63BE_PiIi5GWKOGyx0I-24" edge="1">
          <mxGeometry width="50" height="50" relative="1" as="geometry">
            <mxPoint x="390" y="230" as="sourcePoint" />
            <mxPoint x="440" y="180" as="targetPoint" />
            <Array as="points">
              <mxPoint x="350" y="440" />
              <mxPoint x="350" y="320" />
            </Array>
          </mxGeometry>
        </mxCell>
        <mxCell id="x63BE_PiIi5GWKOGyx0I-34" value="Проект клиента не&lt;div&gt;устраивает&lt;/div&gt;" style="edgeLabel;html=1;align=center;verticalAlign=middle;resizable=0;points=[];" parent="x63BE_PiIi5GWKOGyx0I-33" vertex="1" connectable="0">
          <mxGeometry x="0.0161" relative="1" as="geometry">
            <mxPoint as="offset" />
          </mxGeometry>
        </mxCell>
        <mxCell id="x63BE_PiIi5GWKOGyx0I-35" value="Цена кухни" style="html=1;align=center;verticalAlign=top;rounded=1;absoluteArcSize=1;arcSize=10;dashed=0;whiteSpace=wrap;" parent="1" vertex="1">
          <mxGeometry x="414" y="530" width="140" height="40" as="geometry" />
        </mxCell>
        <mxCell id="x63BE_PiIi5GWKOGyx0I-36" value="" style="endArrow=classic;html=1;rounded=0;exitX=0.5;exitY=1;exitDx=0;exitDy=0;entryX=0.5;entryY=0;entryDx=0;entryDy=0;" parent="1" source="x63BE_PiIi5GWKOGyx0I-30" target="x63BE_PiIi5GWKOGyx0I-35" edge="1">
          <mxGeometry width="50" height="50" relative="1" as="geometry">
            <mxPoint x="390" y="430" as="sourcePoint" />
            <mxPoint x="440" y="380" as="targetPoint" />
          </mxGeometry>
        </mxCell>
        <mxCell id="x63BE_PiIi5GWKOGyx0I-37" value="Проект клиента&lt;div&gt;устроил&lt;/div&gt;" style="edgeLabel;html=1;align=center;verticalAlign=middle;resizable=0;points=[];" parent="x63BE_PiIi5GWKOGyx0I-36" vertex="1" connectable="0">
          <mxGeometry y="1" relative="1" as="geometry">
            <mxPoint as="offset" />
          </mxGeometry>
        </mxCell>
        <mxCell id="x63BE_PiIi5GWKOGyx0I-38" value="" style="endArrow=classic;html=1;rounded=0;exitX=0;exitY=0.5;exitDx=0;exitDy=0;entryX=0;entryY=0.5;entryDx=0;entryDy=0;" parent="1" source="x63BE_PiIi5GWKOGyx0I-35" target="x63BE_PiIi5GWKOGyx0I-24" edge="1">
          <mxGeometry width="50" height="50" relative="1" as="geometry">
            <mxPoint x="244" y="570" as="sourcePoint" />
            <mxPoint x="240" y="340" as="targetPoint" />
            <Array as="points">
              <mxPoint x="240" y="550" />
              <mxPoint x="240" y="320" />
            </Array>
          </mxGeometry>
        </mxCell>
        <mxCell id="x63BE_PiIi5GWKOGyx0I-39" value="Цена клиента не&amp;nbsp;&lt;div&gt;устроила&lt;/div&gt;" style="edgeLabel;html=1;align=center;verticalAlign=middle;resizable=0;points=[];" parent="x63BE_PiIi5GWKOGyx0I-38" vertex="1" connectable="0">
          <mxGeometry x="0.0311" y="-4" relative="1" as="geometry">
            <mxPoint as="offset" />
          </mxGeometry>
        </mxCell>
        <mxCell id="x63BE_PiIi5GWKOGyx0I-40" value="Заключение&lt;div&gt;договора&lt;/div&gt;" style="html=1;align=center;verticalAlign=top;rounded=1;absoluteArcSize=1;arcSize=10;dashed=0;whiteSpace=wrap;" parent="1" vertex="1">
          <mxGeometry x="414" y="650" width="140" height="40" as="geometry" />
        </mxCell>
        <mxCell id="x63BE_PiIi5GWKOGyx0I-41" value="" style="endArrow=classic;html=1;rounded=0;exitX=0.5;exitY=1;exitDx=0;exitDy=0;entryX=0.5;entryY=0;entryDx=0;entryDy=0;" parent="1" source="x63BE_PiIi5GWKOGyx0I-35" target="x63BE_PiIi5GWKOGyx0I-40" edge="1">
          <mxGeometry width="50" height="50" relative="1" as="geometry">
            <mxPoint x="390" y="430" as="sourcePoint" />
            <mxPoint x="440" y="380" as="targetPoint" />
          </mxGeometry>
        </mxCell>
        <mxCell id="x63BE_PiIi5GWKOGyx0I-42" value="Цена клиента&lt;div&gt;устроила&lt;/div&gt;" style="edgeLabel;html=1;align=center;verticalAlign=middle;resizable=0;points=[];" parent="x63BE_PiIi5GWKOGyx0I-41" vertex="1" connectable="0">
          <mxGeometry x="0.0667" y="1" relative="1" as="geometry">
            <mxPoint as="offset" />
          </mxGeometry>
        </mxCell>
        <mxCell id="x63BE_PiIi5GWKOGyx0I-43" value="Установка&lt;div&gt;мебели&lt;/div&gt;" style="html=1;align=center;verticalAlign=top;rounded=1;absoluteArcSize=1;arcSize=10;dashed=0;whiteSpace=wrap;" parent="1" vertex="1">
          <mxGeometry x="414" y="770" width="140" height="40" as="geometry" />
        </mxCell>
        <mxCell id="x63BE_PiIi5GWKOGyx0I-44" value="" style="endArrow=classic;html=1;rounded=0;exitX=0.5;exitY=1;exitDx=0;exitDy=0;entryX=0.5;entryY=0;entryDx=0;entryDy=0;" parent="1" source="x63BE_PiIi5GWKOGyx0I-40" target="x63BE_PiIi5GWKOGyx0I-43" edge="1">
          <mxGeometry width="50" height="50" relative="1" as="geometry">
            <mxPoint x="390" y="630" as="sourcePoint" />
            <mxPoint x="440" y="580" as="targetPoint" />
          </mxGeometry>
        </mxCell>
        <mxCell id="x63BE_PiIi5GWKOGyx0I-47" value="Клиента устроили&lt;div&gt;все условия (сроки)&lt;/div&gt;" style="edgeLabel;html=1;align=center;verticalAlign=middle;resizable=0;points=[];" parent="x63BE_PiIi5GWKOGyx0I-44" vertex="1" connectable="0">
          <mxGeometry y="2" relative="1" as="geometry">
            <mxPoint as="offset" />
          </mxGeometry>
        </mxCell>
        <mxCell id="x63BE_PiIi5GWKOGyx0I-46" value="" style="endArrow=classic;html=1;rounded=0;exitX=1;exitY=0.5;exitDx=0;exitDy=0;entryX=0;entryY=0.5;entryDx=0;entryDy=0;" parent="1" source="x63BE_PiIi5GWKOGyx0I-43" edge="1">
          <mxGeometry width="50" height="50" relative="1" as="geometry">
            <mxPoint x="390" y="530" as="sourcePoint" />
            <mxPoint x="650" y="790" as="targetPoint" />
          </mxGeometry>
        </mxCell>
        <mxCell id="x63BE_PiIi5GWKOGyx0I-48" value="" style="endArrow=classic;html=1;rounded=0;entryX=0;entryY=0;entryDx=0;entryDy=0;exitX=0;exitY=1;exitDx=0;exitDy=0;" parent="1" source="x63BE_PiIi5GWKOGyx0I-40" target="x63BE_PiIi5GWKOGyx0I-40" edge="1">
          <mxGeometry width="50" height="50" relative="1" as="geometry">
            <mxPoint x="410" y="680" as="sourcePoint" />
            <mxPoint x="384" y="670" as="targetPoint" />
            <Array as="points">
              <mxPoint x="360" y="690" />
              <mxPoint x="360" y="650" />
            </Array>
          </mxGeometry>
        </mxCell>
        <mxCell id="x63BE_PiIi5GWKOGyx0I-49" value="Пересогласование усливий доставки и установки" style="edgeLabel;html=1;align=center;verticalAlign=middle;resizable=0;points=[];" parent="x63BE_PiIi5GWKOGyx0I-48" vertex="1" connectable="0">
          <mxGeometry x="-0.0161" y="-2" relative="1" as="geometry">
            <mxPoint x="-92" y="1" as="offset" />
          </mxGeometry>
        </mxCell>
        <mxCell id="x63BE_PiIi5GWKOGyx0I-53" style="edgeStyle=none;rounded=0;orthogonalLoop=1;jettySize=auto;html=1;exitX=1;exitY=0.5;exitDx=0;exitDy=0;entryX=0;entryY=0.5;entryDx=0;entryDy=0;" parent="1" source="x63BE_PiIi5GWKOGyx0I-50" target="x63BE_PiIi5GWKOGyx0I-76" edge="1">
          <mxGeometry relative="1" as="geometry">
            <mxPoint x="110" y="895" as="targetPoint" />
          </mxGeometry>
        </mxCell>
        <mxCell id="x63BE_PiIi5GWKOGyx0I-50" value="" style="ellipse;fillColor=strokeColor;html=1;" parent="1" vertex="1">
          <mxGeometry x="40" y="880" width="30" height="30" as="geometry" />
        </mxCell>
        <mxCell id="x63BE_PiIi5GWKOGyx0I-51" value="" style="ellipse;html=1;shape=endState;fillColor=strokeColor;" parent="1" vertex="1">
          <mxGeometry x="650" y="775" width="30" height="30" as="geometry" />
        </mxCell>
        <mxCell id="x63BE_PiIi5GWKOGyx0I-67" style="edgeStyle=none;rounded=0;orthogonalLoop=1;jettySize=auto;html=1;exitX=1;exitY=0.5;exitDx=0;exitDy=0;entryX=0;entryY=0.5;entryDx=0;entryDy=0;" parent="1" source="x63BE_PiIi5GWKOGyx0I-76" target="x63BE_PiIi5GWKOGyx0I-65" edge="1">
          <mxGeometry relative="1" as="geometry">
            <mxPoint x="250" y="895" as="sourcePoint" />
          </mxGeometry>
        </mxCell>
        <mxCell id="x63BE_PiIi5GWKOGyx0I-59" style="edgeStyle=none;rounded=0;orthogonalLoop=1;jettySize=auto;html=1;exitX=0.6;exitY=0.95;exitDx=0;exitDy=0;entryX=0.5;entryY=0;entryDx=0;entryDy=0;exitPerimeter=0;" parent="1" source="x63BE_PiIi5GWKOGyx0I-73" target="x63BE_PiIi5GWKOGyx0I-58" edge="1">
          <mxGeometry relative="1" as="geometry">
            <mxPoint x="570" y="915" as="sourcePoint" />
          </mxGeometry>
        </mxCell>
        <mxCell id="x63BE_PiIi5GWKOGyx0I-61" style="edgeStyle=none;rounded=0;orthogonalLoop=1;jettySize=auto;html=1;exitX=1;exitY=0.5;exitDx=0;exitDy=0;entryX=1;entryY=0.5;entryDx=0;entryDy=0;" parent="1" source="x63BE_PiIi5GWKOGyx0I-58" target="x63BE_PiIi5GWKOGyx0I-73" edge="1">
          <mxGeometry relative="1" as="geometry">
            <mxPoint x="640" y="895" as="targetPoint" />
            <mxPoint x="640" y="990" as="sourcePoint" />
            <Array as="points">
              <mxPoint x="690" y="1000" />
              <mxPoint x="690" y="890" />
            </Array>
          </mxGeometry>
        </mxCell>
        <mxCell id="x63BE_PiIi5GWKOGyx0I-58" value="" style="rhombus;" parent="1" vertex="1">
          <mxGeometry x="500" y="950" width="140" height="100" as="geometry" />
        </mxCell>
        <mxCell id="x63BE_PiIi5GWKOGyx0I-62" value="Все подписи?" style="edgeLabel;html=1;align=center;verticalAlign=middle;resizable=0;points=[];" parent="1" vertex="1" connectable="0">
          <mxGeometry x="430" y="880" as="geometry">
            <mxPoint x="16" y="-6" as="offset" />
          </mxGeometry>
        </mxCell>
        <mxCell id="x63BE_PiIi5GWKOGyx0I-65" value="" style="rhombus;" parent="1" vertex="1">
          <mxGeometry x="310" y="845" width="100" height="100" as="geometry" />
        </mxCell>
        <mxCell id="x63BE_PiIi5GWKOGyx0I-66" value="" style="endArrow=classic;html=1;rounded=0;exitX=0.5;exitY=1;exitDx=0;exitDy=0;entryX=0.5;entryY=1;entryDx=0;entryDy=0;" parent="1" source="x63BE_PiIi5GWKOGyx0I-65" edge="1">
          <mxGeometry width="50" height="50" relative="1" as="geometry">
            <mxPoint x="390" y="730" as="sourcePoint" />
            <mxPoint x="180" y="915" as="targetPoint" />
            <Array as="points">
              <mxPoint x="360" y="970" />
              <mxPoint x="180" y="970" />
            </Array>
          </mxGeometry>
        </mxCell>
        <mxCell id="x63BE_PiIi5GWKOGyx0I-68" value="" style="endArrow=classic;html=1;rounded=0;exitX=1;exitY=0.5;exitDx=0;exitDy=0;entryX=0;entryY=0.5;entryDx=0;entryDy=0;" parent="1" source="x63BE_PiIi5GWKOGyx0I-65" edge="1">
          <mxGeometry width="50" height="50" relative="1" as="geometry">
            <mxPoint x="390" y="730" as="sourcePoint" />
            <mxPoint x="500" y="895" as="targetPoint" />
          </mxGeometry>
        </mxCell>
        <mxCell id="x63BE_PiIi5GWKOGyx0I-69" value="Не все замеры" style="edgeLabel;html=1;align=center;verticalAlign=middle;resizable=0;points=[];" parent="1" vertex="1" connectable="0">
          <mxGeometry x="720" y="950" as="geometry">
            <mxPoint x="16" y="-6" as="offset" />
          </mxGeometry>
        </mxCell>
        <mxCell id="x63BE_PiIi5GWKOGyx0I-70" value="Не хватает подписей" style="edgeLabel;html=1;align=center;verticalAlign=middle;resizable=0;points=[];" parent="1" vertex="1" connectable="0">
          <mxGeometry x="230" y="990" as="geometry">
            <mxPoint x="16" y="-6" as="offset" />
          </mxGeometry>
        </mxCell>
        <mxCell id="x63BE_PiIi5GWKOGyx0I-72" value="Проетирование" style="rounded=0;whiteSpace=wrap;html=1;" parent="1" vertex="1">
          <mxGeometry x="510" y="1090" width="120" height="40" as="geometry" />
        </mxCell>
        <mxCell id="x63BE_PiIi5GWKOGyx0I-73" value="Замеры" style="rounded=0;whiteSpace=wrap;html=1;" parent="1" vertex="1">
          <mxGeometry x="500" y="870" width="120" height="40" as="geometry" />
        </mxCell>
        <mxCell id="x63BE_PiIi5GWKOGyx0I-75" style="edgeStyle=none;rounded=0;orthogonalLoop=1;jettySize=auto;html=1;exitX=1;exitY=0.5;exitDx=0;exitDy=0;" parent="1" source="x63BE_PiIi5GWKOGyx0I-73" target="x63BE_PiIi5GWKOGyx0I-73" edge="1">
          <mxGeometry relative="1" as="geometry" />
        </mxCell>
        <mxCell id="x63BE_PiIi5GWKOGyx0I-76" value="Оформление" style="rounded=0;whiteSpace=wrap;html=1;" parent="1" vertex="1">
          <mxGeometry x="120" y="880" width="120" height="35" as="geometry" />
        </mxCell>
        <mxCell id="x63BE_PiIi5GWKOGyx0I-77" value="" style="endArrow=classic;html=1;rounded=0;exitX=0.5;exitY=1;exitDx=0;exitDy=0;" parent="1" source="x63BE_PiIi5GWKOGyx0I-58" target="x63BE_PiIi5GWKOGyx0I-72" edge="1">
          <mxGeometry width="50" height="50" relative="1" as="geometry">
            <mxPoint x="390" y="1030" as="sourcePoint" />
            <mxPoint x="440" y="980" as="targetPoint" />
          </mxGeometry>
        </mxCell>
        <mxCell id="x63BE_PiIi5GWKOGyx0I-78" value="" style="rhombus;" parent="1" vertex="1">
          <mxGeometry x="500" y="1180" width="140" height="100" as="geometry" />
        </mxCell>
        <mxCell id="x63BE_PiIi5GWKOGyx0I-79" value="" style="endArrow=classic;html=1;rounded=0;exitX=0.5;exitY=1;exitDx=0;exitDy=0;entryX=0.5;entryY=0;entryDx=0;entryDy=0;" parent="1" source="x63BE_PiIi5GWKOGyx0I-72" target="x63BE_PiIi5GWKOGyx0I-78" edge="1">
          <mxGeometry width="50" height="50" relative="1" as="geometry">
            <mxPoint x="390" y="1030" as="sourcePoint" />
            <mxPoint x="440" y="980" as="targetPoint" />
          </mxGeometry>
        </mxCell>
        <mxCell id="x63BE_PiIi5GWKOGyx0I-80" style="edgeStyle=none;rounded=0;orthogonalLoop=1;jettySize=auto;html=1;exitX=1;exitY=0.5;exitDx=0;exitDy=0;entryX=1;entryY=0.5;entryDx=0;entryDy=0;" parent="1" source="x63BE_PiIi5GWKOGyx0I-78" target="x63BE_PiIi5GWKOGyx0I-72" edge="1">
          <mxGeometry relative="1" as="geometry">
            <mxPoint x="630" y="900" as="targetPoint" />
            <mxPoint x="650" y="1010" as="sourcePoint" />
            <Array as="points">
              <mxPoint x="680" y="1230" />
              <mxPoint x="680" y="1110" />
            </Array>
          </mxGeometry>
        </mxCell>
        <mxCell id="x63BE_PiIi5GWKOGyx0I-81" value="Нет" style="edgeLabel;html=1;align=center;verticalAlign=middle;resizable=0;points=[];" parent="1" vertex="1" connectable="0">
          <mxGeometry x="680" y="1100" as="geometry">
            <mxPoint x="16" y="-6" as="offset" />
          </mxGeometry>
        </mxCell>
        <mxCell id="x63BE_PiIi5GWKOGyx0I-82" value="Расчёт стоисмости" style="rounded=0;whiteSpace=wrap;html=1;" parent="1" vertex="1">
          <mxGeometry x="510" y="1320" width="120" height="40" as="geometry" />
        </mxCell>
        <mxCell id="x63BE_PiIi5GWKOGyx0I-84" value="Проект клиента устроил" style="edgeLabel;html=1;align=center;verticalAlign=middle;resizable=0;points=[];" parent="1" vertex="1" connectable="0">
          <mxGeometry x="490" y="1300" as="geometry">
            <mxPoint x="16" y="-6" as="offset" />
          </mxGeometry>
        </mxCell>
        <mxCell id="x63BE_PiIi5GWKOGyx0I-85" value="" style="endArrow=classic;html=1;rounded=0;exitX=0.5;exitY=1;exitDx=0;exitDy=0;entryX=0.5;entryY=0;entryDx=0;entryDy=0;" parent="1" source="x63BE_PiIi5GWKOGyx0I-78" target="x63BE_PiIi5GWKOGyx0I-82" edge="1">
          <mxGeometry width="50" height="50" relative="1" as="geometry">
            <mxPoint x="390" y="1230" as="sourcePoint" />
            <mxPoint x="440" y="1180" as="targetPoint" />
          </mxGeometry>
        </mxCell>
        <mxCell id="x63BE_PiIi5GWKOGyx0I-86" value="" style="rhombus;" parent="1" vertex="1">
          <mxGeometry x="500" y="1400" width="140" height="100" as="geometry" />
        </mxCell>
        <mxCell id="x63BE_PiIi5GWKOGyx0I-87" value="" style="endArrow=classic;html=1;rounded=0;exitX=0.5;exitY=1;exitDx=0;exitDy=0;entryX=0.5;entryY=0;entryDx=0;entryDy=0;" parent="1" source="x63BE_PiIi5GWKOGyx0I-82" target="x63BE_PiIi5GWKOGyx0I-86" edge="1">
          <mxGeometry width="50" height="50" relative="1" as="geometry">
            <mxPoint x="390" y="1230" as="sourcePoint" />
            <mxPoint x="440" y="1180" as="targetPoint" />
          </mxGeometry>
        </mxCell>
        <mxCell id="x63BE_PiIi5GWKOGyx0I-88" value="" style="endArrow=classic;html=1;rounded=0;exitX=1;exitY=0.5;exitDx=0;exitDy=0;entryX=1;entryY=0.5;entryDx=0;entryDy=0;" parent="1" source="x63BE_PiIi5GWKOGyx0I-86" target="x63BE_PiIi5GWKOGyx0I-72" edge="1">
          <mxGeometry width="50" height="50" relative="1" as="geometry">
            <mxPoint x="390" y="1230" as="sourcePoint" />
            <mxPoint x="440" y="1180" as="targetPoint" />
            <Array as="points">
              <mxPoint x="720" y="1450" />
              <mxPoint x="720" y="1110" />
            </Array>
          </mxGeometry>
        </mxCell>
        <mxCell id="x63BE_PiIi5GWKOGyx0I-89" value="Определение условий&amp;nbsp;&lt;div&gt;доставки&lt;/div&gt;" style="rounded=0;whiteSpace=wrap;html=1;" parent="1" vertex="1">
          <mxGeometry x="500" y="1540" width="140" height="40" as="geometry" />
        </mxCell>
        <mxCell id="x63BE_PiIi5GWKOGyx0I-90" value="" style="endArrow=classic;html=1;rounded=0;exitX=0.5;exitY=1;exitDx=0;exitDy=0;entryX=0.5;entryY=0;entryDx=0;entryDy=0;" parent="1" source="x63BE_PiIi5GWKOGyx0I-86" target="x63BE_PiIi5GWKOGyx0I-89" edge="1">
          <mxGeometry width="50" height="50" relative="1" as="geometry">
            <mxPoint x="390" y="1330" as="sourcePoint" />
            <mxPoint x="440" y="1280" as="targetPoint" />
          </mxGeometry>
        </mxCell>
        <mxCell id="x63BE_PiIi5GWKOGyx0I-92" value="" style="rhombus;" parent="1" vertex="1">
          <mxGeometry x="500" y="1630" width="140" height="100" as="geometry" />
        </mxCell>
        <mxCell id="x63BE_PiIi5GWKOGyx0I-93" value="" style="endArrow=classic;html=1;rounded=0;exitX=0.5;exitY=1;exitDx=0;exitDy=0;entryX=0.5;entryY=0;entryDx=0;entryDy=0;" parent="1" source="x63BE_PiIi5GWKOGyx0I-89" target="x63BE_PiIi5GWKOGyx0I-92" edge="1">
          <mxGeometry width="50" height="50" relative="1" as="geometry">
            <mxPoint x="390" y="1530" as="sourcePoint" />
            <mxPoint x="440" y="1480" as="targetPoint" />
          </mxGeometry>
        </mxCell>
        <mxCell id="x63BE_PiIi5GWKOGyx0I-95" value="" style="endArrow=classic;html=1;rounded=0;exitX=1;exitY=0.5;exitDx=0;exitDy=0;entryX=1;entryY=0.25;entryDx=0;entryDy=0;" parent="1" source="x63BE_PiIi5GWKOGyx0I-92" target="x63BE_PiIi5GWKOGyx0I-89" edge="1">
          <mxGeometry width="50" height="50" relative="1" as="geometry">
            <mxPoint x="390" y="1530" as="sourcePoint" />
            <mxPoint x="440" y="1480" as="targetPoint" />
            <Array as="points">
              <mxPoint x="700" y="1680" />
              <mxPoint x="700" y="1550" />
            </Array>
          </mxGeometry>
        </mxCell>
        <mxCell id="x63BE_PiIi5GWKOGyx0I-97" value="Доставка и установка мебели" style="rounded=0;whiteSpace=wrap;html=1;" parent="1" vertex="1">
          <mxGeometry x="500" y="1770" width="140" height="40" as="geometry" />
        </mxCell>
        <mxCell id="x63BE_PiIi5GWKOGyx0I-98" value="" style="endArrow=classic;html=1;rounded=0;exitX=0.5;exitY=1;exitDx=0;exitDy=0;entryX=0.5;entryY=0;entryDx=0;entryDy=0;" parent="1" source="x63BE_PiIi5GWKOGyx0I-92" target="x63BE_PiIi5GWKOGyx0I-97" edge="1">
          <mxGeometry width="50" height="50" relative="1" as="geometry">
            <mxPoint x="390" y="1630" as="sourcePoint" />
            <mxPoint x="440" y="1580" as="targetPoint" />
          </mxGeometry>
        </mxCell>
        <mxCell id="x63BE_PiIi5GWKOGyx0I-99" value="" style="rhombus;" parent="1" vertex="1">
          <mxGeometry x="500" y="1850" width="140" height="100" as="geometry" />
        </mxCell>
        <mxCell id="x63BE_PiIi5GWKOGyx0I-100" value="" style="endArrow=classic;html=1;rounded=0;exitX=0.5;exitY=1;exitDx=0;exitDy=0;entryX=0.5;entryY=0;entryDx=0;entryDy=0;" parent="1" source="x63BE_PiIi5GWKOGyx0I-97" target="x63BE_PiIi5GWKOGyx0I-99" edge="1">
          <mxGeometry width="50" height="50" relative="1" as="geometry">
            <mxPoint x="390" y="1830" as="sourcePoint" />
            <mxPoint x="440" y="1780" as="targetPoint" />
          </mxGeometry>
        </mxCell>
        <mxCell id="x63BE_PiIi5GWKOGyx0I-101" value="" style="ellipse;html=1;shape=endState;fillColor=strokeColor;" parent="1" vertex="1">
          <mxGeometry x="555" y="1980" width="30" height="30" as="geometry" />
        </mxCell>
        <mxCell id="x63BE_PiIi5GWKOGyx0I-102" value="" style="endArrow=classic;html=1;rounded=0;exitX=0.5;exitY=1;exitDx=0;exitDy=0;exitPerimeter=0;entryX=0.5;entryY=0;entryDx=0;entryDy=0;" parent="1" source="x63BE_PiIi5GWKOGyx0I-99" target="x63BE_PiIi5GWKOGyx0I-101" edge="1">
          <mxGeometry width="50" height="50" relative="1" as="geometry">
            <mxPoint x="390" y="1830" as="sourcePoint" />
            <mxPoint x="440" y="1780" as="targetPoint" />
          </mxGeometry>
        </mxCell>
        <mxCell id="x63BE_PiIi5GWKOGyx0I-103" value="Всё получилось" style="edgeLabel;html=1;align=center;verticalAlign=middle;resizable=0;points=[];" parent="1" vertex="1" connectable="0">
          <mxGeometry x="600" y="1970" as="geometry">
            <mxPoint x="16" y="-6" as="offset" />
          </mxGeometry>
        </mxCell>
        <mxCell id="x63BE_PiIi5GWKOGyx0I-104" value="" style="endArrow=classic;html=1;rounded=0;exitX=1;exitY=0.5;exitDx=0;exitDy=0;entryX=1;entryY=0.5;entryDx=0;entryDy=0;" parent="1" source="x63BE_PiIi5GWKOGyx0I-99" target="x63BE_PiIi5GWKOGyx0I-97" edge="1">
          <mxGeometry width="50" height="50" relative="1" as="geometry">
            <mxPoint x="390" y="1830" as="sourcePoint" />
            <mxPoint x="440" y="1780" as="targetPoint" />
            <Array as="points">
              <mxPoint x="690" y="1900" />
              <mxPoint x="690" y="1790" />
            </Array>
          </mxGeometry>
        </mxCell>
        <mxCell id="x63BE_PiIi5GWKOGyx0I-106" value="Замеры все?" style="edgeLabel;html=1;align=center;verticalAlign=middle;resizable=0;points=[];" parent="1" vertex="1" connectable="0">
          <mxGeometry x="600" y="1070" as="geometry">
            <mxPoint x="12" y="-3" as="offset" />
          </mxGeometry>
        </mxCell>
        <mxCell id="x63BE_PiIi5GWKOGyx0I-107" value="Цена клиента устроила" style="edgeLabel;html=1;align=center;verticalAlign=middle;resizable=0;points=[];" parent="1" vertex="1" connectable="0">
          <mxGeometry x="480" y="1520" as="geometry">
            <mxPoint x="16" y="-6" as="offset" />
          </mxGeometry>
        </mxCell>
        <mxCell id="x63BE_PiIi5GWKOGyx0I-108" value="Условия доставки клиента устроили" style="edgeLabel;html=1;align=center;verticalAlign=middle;resizable=0;points=[];" parent="1" vertex="1" connectable="0">
          <mxGeometry x="450" y="1754" as="geometry">
            <mxPoint x="16" y="-6" as="offset" />
          </mxGeometry>
        </mxCell>
        <mxCell id="x63BE_PiIi5GWKOGyx0I-109" value="Условия доставки клиента не&lt;div&gt;&amp;nbsp;устроили&lt;/div&gt;" style="edgeLabel;html=1;align=center;verticalAlign=middle;resizable=0;points=[];" parent="1" vertex="1" connectable="0">
          <mxGeometry x="730" y="1700" as="geometry">
            <mxPoint x="16" y="-6" as="offset" />
          </mxGeometry>
        </mxCell>
        <mxCell id="x63BE_PiIi5GWKOGyx0I-110" value="Что-то сломалось" style="edgeLabel;html=1;align=center;verticalAlign=middle;resizable=0;points=[];" parent="1" vertex="1" connectable="0">
          <mxGeometry x="730" y="1860" as="geometry">
            <mxPoint x="16" y="-6" as="offset" />
          </mxGeometry>
        </mxCell>
        <mxCell id="7-csvIc4F3XjnpRCWbJV-1" value="Список аппаратных требований&lt;div&gt;Список программных требований&lt;/div&gt;" style="shape=note;whiteSpace=wrap;html=1;backgroundOutline=1;darkOpacity=0.05;" vertex="1" parent="1">
          <mxGeometry x="70" y="2380" width="190" height="100" as="geometry" />
        </mxCell>
        <mxCell id="7-csvIc4F3XjnpRCWbJV-2" value="Список аппаратных требований&lt;div&gt;Список программных требований&lt;/div&gt;" style="shape=note;whiteSpace=wrap;html=1;backgroundOutline=1;darkOpacity=0.05;" vertex="1" parent="1">
          <mxGeometry x="500" y="2380" width="190" height="100" as="geometry" />
        </mxCell>
        <mxCell id="7-csvIc4F3XjnpRCWbJV-4" style="edgeStyle=orthogonalEdgeStyle;rounded=0;orthogonalLoop=1;jettySize=auto;html=1;endArrow=none;endFill=0;entryX=1.011;entryY=0.51;entryDx=0;entryDy=0;entryPerimeter=0;exitX=0;exitY=0.5;exitDx=0;exitDy=0;" edge="1" parent="1" source="7-csvIc4F3XjnpRCWbJV-7" target="7-csvIc4F3XjnpRCWbJV-1">
          <mxGeometry relative="1" as="geometry">
            <mxPoint x="300" y="2430" as="targetPoint" />
            <Array as="points">
              <mxPoint x="290" y="2610" />
              <mxPoint x="290" y="2431" />
            </Array>
          </mxGeometry>
        </mxCell>
        <mxCell id="7-csvIc4F3XjnpRCWbJV-5" value="Text" style="edgeLabel;html=1;align=center;verticalAlign=middle;resizable=0;points=[];" vertex="1" connectable="0" parent="7-csvIc4F3XjnpRCWbJV-4">
          <mxGeometry x="0.0885" y="-3" relative="1" as="geometry">
            <mxPoint as="offset" />
          </mxGeometry>
        </mxCell>
        <mxCell id="7-csvIc4F3XjnpRCWbJV-6" value="Выделенная линия COM" style="edgeLabel;html=1;align=center;verticalAlign=middle;resizable=0;points=[];fontSize=14;" vertex="1" connectable="0" parent="7-csvIc4F3XjnpRCWbJV-4">
          <mxGeometry x="0.08" y="-4" relative="1" as="geometry">
            <mxPoint as="offset" />
          </mxGeometry>
        </mxCell>
        <mxCell id="7-csvIc4F3XjnpRCWbJV-7" value="Internet" style="ellipse;whiteSpace=wrap;html=1;" vertex="1" parent="1">
          <mxGeometry x="320" y="2570" width="120" height="80" as="geometry" />
        </mxCell>
        <mxCell id="7-csvIc4F3XjnpRCWbJV-8" style="edgeStyle=orthogonalEdgeStyle;rounded=0;orthogonalLoop=1;jettySize=auto;html=1;entryX=0;entryY=0.5;entryDx=0;entryDy=0;entryPerimeter=0;endArrow=none;endFill=0;" edge="1" parent="1" source="7-csvIc4F3XjnpRCWbJV-7" target="7-csvIc4F3XjnpRCWbJV-2">
          <mxGeometry relative="1" as="geometry" />
        </mxCell>
        <mxCell id="7-csvIc4F3XjnpRCWbJV-10" value="Actor" style="shape=umlActor;verticalLabelPosition=bottom;verticalAlign=top;html=1;" vertex="1" parent="1">
          <mxGeometry x="215" y="2780" width="30" height="60" as="geometry" />
        </mxCell>
        <mxCell id="7-csvIc4F3XjnpRCWbJV-13" value="Lifeline2" style="shape=umlLifeline;perimeter=lifelinePerimeter;whiteSpace=wrap;html=1;container=1;dropTarget=0;collapsible=0;recursiveResize=0;outlineConnect=0;portConstraint=eastwest;newEdgeStyle={&quot;edgeStyle&quot;:&quot;elbowEdgeStyle&quot;,&quot;elbow&quot;:&quot;vertical&quot;,&quot;curved&quot;:0,&quot;rounded&quot;:0};" vertex="1" parent="1">
          <mxGeometry x="420" y="2750" width="100" height="300" as="geometry" />
        </mxCell>
        <mxCell id="7-csvIc4F3XjnpRCWbJV-14" value="" style="html=1;points=[[0,0,0,0,5],[0,1,0,0,-5],[1,0,0,0,5],[1,1,0,0,-5]];perimeter=orthogonalPerimeter;outlineConnect=0;targetShapes=umlLifeline;portConstraint=eastwest;newEdgeStyle={&quot;curved&quot;:0,&quot;rounded&quot;:0};fillColor=#808080;" vertex="1" parent="7-csvIc4F3XjnpRCWbJV-13">
          <mxGeometry x="45" y="90" width="10" height="120" as="geometry" />
        </mxCell>
        <mxCell id="7-csvIc4F3XjnpRCWbJV-15" value="Холодильник" style="shape=umlLifeline;perimeter=lifelinePerimeter;whiteSpace=wrap;html=1;container=1;dropTarget=0;collapsible=0;recursiveResize=0;outlineConnect=0;portConstraint=eastwest;newEdgeStyle={&quot;edgeStyle&quot;:&quot;elbowEdgeStyle&quot;,&quot;elbow&quot;:&quot;vertical&quot;,&quot;curved&quot;:0,&quot;rounded&quot;:0};" vertex="1" parent="1">
          <mxGeometry x="300" y="2750" width="100" height="360" as="geometry" />
        </mxCell>
        <mxCell id="7-csvIc4F3XjnpRCWbJV-16" value="" style="html=1;points=[[0,0,0,0,5],[0,1,0,0,-5],[1,0,0,0,5],[1,1,0,0,-5]];perimeter=orthogonalPerimeter;outlineConnect=0;targetShapes=umlLifeline;portConstraint=eastwest;newEdgeStyle={&quot;curved&quot;:0,&quot;rounded&quot;:0};" vertex="1" parent="7-csvIc4F3XjnpRCWbJV-15">
          <mxGeometry x="45" y="90" width="10" height="120" as="geometry" />
        </mxCell>
        <mxCell id="7-csvIc4F3XjnpRCWbJV-18" value="Ознакомление с&lt;div&gt;содержимым&amp;nbsp;&lt;/div&gt;&lt;div&gt;холодильника&lt;/div&gt;" style="html=1;points=[[0,0,0,0,5],[0,1,0,0,-5],[1,0,0,0,5],[1,1,0,0,-5]];perimeter=orthogonalPerimeter;outlineConnect=0;targetShapes=umlLifeline;portConstraint=eastwest;newEdgeStyle={&quot;curved&quot;:0,&quot;rounded&quot;:0};" vertex="1" parent="1">
          <mxGeometry x="200" y="2910" width="10" height="80" as="geometry" />
        </mxCell>
        <mxCell id="7-csvIc4F3XjnpRCWbJV-21" style="edgeStyle=orthogonalEdgeStyle;rounded=0;orthogonalLoop=1;jettySize=auto;html=1;entryX=0;entryY=0;entryDx=0;entryDy=5;entryPerimeter=0;" edge="1" parent="1" source="7-csvIc4F3XjnpRCWbJV-10" target="7-csvIc4F3XjnpRCWbJV-18">
          <mxGeometry relative="1" as="geometry" />
        </mxCell>
        <mxCell id="7-csvIc4F3XjnpRCWbJV-23" value="" style="endArrow=classic;startArrow=none;endFill=1;startFill=0;endSize=8;html=1;verticalAlign=bottom;labelBackgroundColor=none;rounded=0;exitX=1;exitY=0;exitDx=0;exitDy=5;exitPerimeter=0;" edge="1" parent="1" source="7-csvIc4F3XjnpRCWbJV-18">
          <mxGeometry width="160" relative="1" as="geometry">
            <mxPoint x="330" y="2900" as="sourcePoint" />
            <mxPoint x="340" y="2915" as="targetPoint" />
          </mxGeometry>
        </mxCell>
        <mxCell id="7-csvIc4F3XjnpRCWbJV-24" value="Запрос о&lt;div&gt;содержимом&lt;/div&gt;" style="edgeLabel;html=1;align=center;verticalAlign=middle;resizable=0;points=[];" vertex="1" connectable="0" parent="7-csvIc4F3XjnpRCWbJV-23">
          <mxGeometry x="-0.2" relative="1" as="geometry">
            <mxPoint as="offset" />
          </mxGeometry>
        </mxCell>
        <mxCell id="7-csvIc4F3XjnpRCWbJV-27" style="edgeStyle=orthogonalEdgeStyle;rounded=0;orthogonalLoop=1;jettySize=auto;html=1;curved=0;entryX=1;entryY=1;entryDx=0;entryDy=-5;entryPerimeter=0;" edge="1" parent="1" source="7-csvIc4F3XjnpRCWbJV-16" target="7-csvIc4F3XjnpRCWbJV-18">
          <mxGeometry relative="1" as="geometry">
            <Array as="points">
              <mxPoint x="278" y="2950" />
              <mxPoint x="278" y="2985" />
            </Array>
          </mxGeometry>
        </mxCell>
        <mxCell id="7-csvIc4F3XjnpRCWbJV-28" value="Перечень&lt;div&gt;продуктов&lt;/div&gt;" style="edgeLabel;html=1;align=center;verticalAlign=middle;resizable=0;points=[];" vertex="1" connectable="0" parent="7-csvIc4F3XjnpRCWbJV-27">
          <mxGeometry x="0.4" y="-1" relative="1" as="geometry">
            <mxPoint as="offset" />
          </mxGeometry>
        </mxCell>
        <mxCell id="7-csvIc4F3XjnpRCWbJV-29" value="Выбрать, что&lt;div&gt;взять из&lt;/div&gt;&lt;div&gt;холодильника&lt;/div&gt;" style="html=1;points=[[0,0,0,0,5],[0,1,0,0,-5],[1,0,0,0,5],[1,1,0,0,-5]];perimeter=orthogonalPerimeter;outlineConnect=0;targetShapes=umlLifeline;portConstraint=eastwest;newEdgeStyle={&quot;curved&quot;:0,&quot;rounded&quot;:0};" vertex="1" parent="1">
          <mxGeometry x="200" y="3020" width="10" height="80" as="geometry" />
        </mxCell>
        <mxCell id="7-csvIc4F3XjnpRCWbJV-30" style="edgeStyle=orthogonalEdgeStyle;rounded=0;orthogonalLoop=1;jettySize=auto;html=1;curved=0;entryX=0;entryY=0;entryDx=0;entryDy=5;entryPerimeter=0;" edge="1" parent="1" source="7-csvIc4F3XjnpRCWbJV-18" target="7-csvIc4F3XjnpRCWbJV-29">
          <mxGeometry relative="1" as="geometry">
            <Array as="points">
              <mxPoint x="160" y="2980" />
              <mxPoint x="160" y="3025" />
            </Array>
          </mxGeometry>
        </mxCell>
        <mxCell id="7-csvIc4F3XjnpRCWbJV-36" style="edgeStyle=orthogonalEdgeStyle;rounded=0;orthogonalLoop=1;jettySize=auto;html=1;curved=0;exitX=1;exitY=0;exitDx=0;exitDy=5;exitPerimeter=0;" edge="1" parent="1" source="7-csvIc4F3XjnpRCWbJV-32">
          <mxGeometry relative="1" as="geometry">
            <mxPoint x="340" y="3125" as="targetPoint" />
          </mxGeometry>
        </mxCell>
        <mxCell id="7-csvIc4F3XjnpRCWbJV-32" value="Забрать еду из&lt;div&gt;холодильника&lt;/div&gt;" style="html=1;points=[[0,0,0,0,5],[0,1,0,0,-5],[1,0,0,0,5],[1,1,0,0,-5]];perimeter=orthogonalPerimeter;outlineConnect=0;targetShapes=umlLifeline;portConstraint=eastwest;newEdgeStyle={&quot;curved&quot;:0,&quot;rounded&quot;:0};" vertex="1" parent="1">
          <mxGeometry x="200" y="3120" width="10" height="80" as="geometry" />
        </mxCell>
        <mxCell id="7-csvIc4F3XjnpRCWbJV-33" style="edgeStyle=orthogonalEdgeStyle;rounded=0;orthogonalLoop=1;jettySize=auto;html=1;curved=0;entryX=0;entryY=0;entryDx=0;entryDy=5;entryPerimeter=0;" edge="1" parent="1" source="7-csvIc4F3XjnpRCWbJV-29" target="7-csvIc4F3XjnpRCWbJV-32">
          <mxGeometry relative="1" as="geometry">
            <Array as="points">
              <mxPoint x="160" y="3090" />
              <mxPoint x="160" y="3125" />
            </Array>
          </mxGeometry>
        </mxCell>
        <mxCell id="7-csvIc4F3XjnpRCWbJV-34" value="ДИАГРАММА ПОСЛЕДОВАТЕЛЬНОСТИ" style="text;html=1;align=center;verticalAlign=middle;whiteSpace=wrap;rounded=0;" vertex="1" parent="1">
          <mxGeometry x="215" y="2700" width="430" height="30" as="geometry" />
        </mxCell>
        <mxCell id="7-csvIc4F3XjnpRCWbJV-38" style="edgeStyle=orthogonalEdgeStyle;rounded=0;orthogonalLoop=1;jettySize=auto;html=1;curved=0;exitX=0;exitY=1;exitDx=0;exitDy=-5;exitPerimeter=0;" edge="1" parent="1" source="7-csvIc4F3XjnpRCWbJV-35" target="7-csvIc4F3XjnpRCWbJV-32">
          <mxGeometry relative="1" as="geometry">
            <mxPoint x="220" y="3185" as="targetPoint" />
            <Array as="points">
              <mxPoint x="345" y="3190" />
            </Array>
          </mxGeometry>
        </mxCell>
        <mxCell id="7-csvIc4F3XjnpRCWbJV-43" value="Продукт&lt;div&gt;питания&lt;/div&gt;" style="edgeLabel;html=1;align=center;verticalAlign=middle;resizable=0;points=[];" vertex="1" connectable="0" parent="7-csvIc4F3XjnpRCWbJV-38">
          <mxGeometry x="0.131" y="3" relative="1" as="geometry">
            <mxPoint y="-1" as="offset" />
          </mxGeometry>
        </mxCell>
        <mxCell id="7-csvIc4F3XjnpRCWbJV-42" style="edgeStyle=orthogonalEdgeStyle;rounded=0;orthogonalLoop=1;jettySize=auto;html=1;curved=0;exitX=0;exitY=1;exitDx=0;exitDy=-5;exitPerimeter=0;dashed=1;endArrow=none;endFill=0;" edge="1" parent="1" source="7-csvIc4F3XjnpRCWbJV-35" target="7-csvIc4F3XjnpRCWbJV-41">
          <mxGeometry relative="1" as="geometry">
            <Array as="points">
              <mxPoint x="350" y="3195" />
            </Array>
          </mxGeometry>
        </mxCell>
        <mxCell id="7-csvIc4F3XjnpRCWbJV-35" value="Отдать еду" style="html=1;points=[[0,0,0,0,5],[0,1,0,0,-5],[1,0,0,0,5],[1,1,0,0,-5]];perimeter=orthogonalPerimeter;outlineConnect=0;targetShapes=umlLifeline;portConstraint=eastwest;newEdgeStyle={&quot;curved&quot;:0,&quot;rounded&quot;:0};" vertex="1" parent="1">
          <mxGeometry x="345" y="3110" width="10" height="90" as="geometry" />
        </mxCell>
        <mxCell id="7-csvIc4F3XjnpRCWbJV-39" value="ДИАГРАММА РАЗВЁРТЫВАНИЯ" style="text;html=1;align=center;verticalAlign=middle;whiteSpace=wrap;rounded=0;" vertex="1" parent="1">
          <mxGeometry x="145" y="2330" width="430" height="30" as="geometry" />
        </mxCell>
        <mxCell id="7-csvIc4F3XjnpRCWbJV-40" value="ДИАГРАММА АКТИВНОСТИ" style="text;html=1;align=center;verticalAlign=middle;whiteSpace=wrap;rounded=0;" vertex="1" parent="1">
          <mxGeometry x="275" y="830" width="430" height="30" as="geometry" />
        </mxCell>
        <mxCell id="7-csvIc4F3XjnpRCWbJV-41" value="" style="shape=umlDestroy;html=1;" vertex="1" parent="1">
          <mxGeometry x="335" y="3240" width="30" height="30" as="geometry" />
        </mxCell>
      </root>
    </mxGraphModel>
  </diagram>
</mxfile>
